<svg width="32" height="32" viewBox="0 0 32 32" fill="none" xmlns="http://www.w3.org/2000/svg">
<path d="M28 26.5H24.475C26.9503 24.4989 28.6384 21.687 29.2409 18.5615C29.8435 15.436 29.3216 12.1982 27.7676 9.42026C26.2136 6.64235 23.7275 4.50329 20.7488 3.3812C17.7701 2.2591 14.4906 2.22622 11.49 3.28838C8.48944 4.35054 5.96097 6.43932 4.35159 9.18552C2.7422 11.9317 2.15553 15.1585 2.69527 18.2954C3.23501 21.4324 4.86641 24.2775 7.3011 26.3278C9.73579 28.3782 12.817 29.5018 16 29.5H28C28.3978 29.5 28.7794 29.342 29.0607 29.0607C29.342 28.7794 29.5 28.3978 29.5 28C29.5 27.6022 29.342 27.2207 29.0607 26.9394C28.7794 26.658 28.3978 26.5 28 26.5ZM5.50001 16C5.50001 13.9233 6.11582 11.8932 7.26958 10.1665C8.42333 8.43981 10.0632 7.094 11.9818 6.29928C13.9005 5.50456 16.0117 5.29662 18.0485 5.70177C20.0853 6.10691 21.9562 7.10694 23.4246 8.57539C24.8931 10.0438 25.8931 11.9148 26.2983 13.9516C26.7034 15.9884 26.4955 18.0996 25.7007 20.0182C24.906 21.9368 23.5602 23.5767 21.8335 24.7304C20.1068 25.8842 18.0767 26.5 16 26.5C13.2161 26.497 10.5472 25.3898 8.57867 23.4213C6.61019 21.4529 5.50299 18.7839 5.50001 16Z" fill="white"/>
</svg>
