<svg width="32" height="32" viewBox="0 0 32 32" fill="none" xmlns="http://www.w3.org/2000/svg">
<path fill-rule="evenodd" clip-rule="evenodd" d="M24.475 26.5H28C28.3978 26.5 28.7794 26.658 29.0607 26.9394C29.342 27.2207 29.5 27.6022 29.5 28C29.5 28.3978 29.342 28.7794 29.0607 29.0607C28.7794 29.342 28.3978 29.5 28 29.5H16C12.817 29.5018 9.73579 28.3782 7.3011 26.3278C4.86641 24.2775 3.23501 21.4324 2.69527 18.2954C2.15553 15.1585 2.7422 11.9317 4.35159 9.18552C5.96097 6.43932 8.48944 4.35054 11.49 3.28838C14.4906 2.22622 17.7701 2.2591 20.7488 3.3812C23.7275 4.50329 26.2136 6.64235 27.7676 9.42026C29.3216 12.1982 29.8435 15.436 29.2409 18.5615C28.6384 21.687 26.9503 24.4989 24.475 26.5ZM7.26958 10.1665C6.11582 11.8932 5.50001 13.9233 5.50001 16C5.50299 18.7839 6.61019 21.4529 8.57867 23.4213C10.5472 25.3898 13.2161 26.497 16 26.5C18.0767 26.5 20.1068 25.8842 21.8335 24.7304C23.5602 23.5767 24.906 21.9368 25.7007 20.0182C26.4955 18.0996 26.7034 15.9884 26.2983 13.9516C25.8931 11.9148 24.8931 10.0438 23.4246 8.57539C21.9562 7.10694 20.0853 6.10691 18.0485 5.70177C16.0117 5.29662 13.9005 5.50456 11.9818 6.29928C10.0632 7.094 8.42333 8.43981 7.26958 10.1665ZM13.9213 9.11109C13.6466 9.52221 13.5 10.0056 13.5 10.5C13.5 11.1631 13.7634 11.7989 14.2322 12.2678C14.7011 12.7366 15.337 13 16 13V8.00001C15.6733 8.00001 15.3481 8.06407 15.0433 8.19031C14.5865 8.37953 14.196 8.69996 13.9213 9.11109ZM14.6111 23.5787C15.0222 23.8534 15.5056 24 16 24C16.3283 24 16.6534 23.9353 16.9567 23.8097C17.26 23.6841 17.5356 23.4999 17.7678 23.2678C17.9999 23.0356 18.1841 22.76 18.3097 22.4567C18.4353 22.1534 18.5 21.8283 18.5 21.5C18.5 21.0056 18.3534 20.5222 18.0787 20.1111C17.804 19.7 17.4135 19.3795 16.9567 19.1903C16.4999 19.0011 15.9972 18.9516 15.5123 19.048C15.0273 19.1445 14.5819 19.3826 14.2322 19.7322C13.8826 20.0819 13.6445 20.5273 13.548 21.0123C13.4516 21.4972 13.5011 21.9999 13.6903 22.4567C13.8795 22.9135 14.2 23.304 14.6111 23.5787ZM19.4213 14.6111C19.1466 15.0222 19 15.5056 19 16C19 16.6631 19.2634 17.2989 19.7322 17.7678C20.2011 18.2366 20.837 18.5 21.5 18.5C21.5559 18.5 21.6117 18.4981 21.6673 18.4944C22.4709 17.9562 23 17.0399 23 16C23 14.9601 22.4709 14.0438 21.6673 13.5056C21.2849 13.48 20.9001 13.5425 20.5433 13.6903C20.0865 13.8795 19.696 14.2 19.4213 14.6111ZM11.1998 18.4001C10.8152 18.5122 10.4078 18.5307 10.0123 18.452C9.52733 18.3555 9.08187 18.1174 8.73224 17.7678C8.38261 17.4181 8.14451 16.9727 8.04804 16.4877C7.95158 16.0028 8.00109 15.5001 8.19031 15.0433C8.37953 14.5865 8.69996 14.196 9.11108 13.9213C9.5222 13.6466 10.0056 13.5 10.5 13.5C10.739 13.5 10.9744 13.5342 11.1998 13.5999C10.4712 14.1473 10 15.0186 10 16C10 16.9814 10.4712 17.8527 11.1998 18.4001Z" fill="black"/>
</svg>
